<svg width="68" height="101" xmlns="http://www.w3.org/2000/svg" xmlns:xlink="http://www.w3.org/1999/xlink">
    <defs>
        <path id="a" d="M67.68.31V68H0V.31h67.68z" />
        <path id="c" d="M.161.847h36.321v32.11H.162z" />
    </defs>
    <g fill="none" fill-rule="evenodd">
        <g transform="translate(0 32)">
            <mask id="b" fill="#fff">
                <use xlink:href="#a" />
            </mask>
            <path d="M33.841 68C15.183 68 .001 52.815.001 34.158 0 15.492 15.182.309 33.84.309 52.497.31 67.68 15.492 67.68 34.16c0 18.657-15.183 33.84-33.839 33.84" fill="#FC3" mask="url(#b)" />
        </g>
        <path d="M59 65.004C59 79.363 47.354 91 32.997 91 18.637 91 7 79.363 7 65.004 7 50.637 18.638 39 32.997 39 47.354 39 59 50.637 59 65.004" fill="#FFF5D6" />
        <path fill="#FC3" d="M34 47l5.568 11.52L52 60.368l-8.997 8.967L45.128 82 34 76.02 22.88 82l2.125-12.665L16 60.368l12.44-1.848z" />
        <g transform="translate(28)">
            <mask id="d" fill="#fff">
                <use xlink:href="#c" />
            </mask>
            <path d="M5.833 31.16c3.833 0 7.507.65 10.95 1.797l19.7-32.11H19.07L.16 31.66c1.855-.3 3.742-.5 5.672-.5" fill="#85A3E0" mask="url(#d)" />
        </g>
        <path d="M28.432 31.804L34 22.284 21.571 1H5l18.682 32a31.16 31.16 0 0 1 4.75-1.196" fill="#264D99" />
    </g>
</svg>